# xmcd
#
# Track frame offsets: 
#        150
#        12097
#        24615
#        43335
#        54670
#        73962
#        86077
#        99197
#        112655
#        123717
#        135762
#        153245
#        167872
#        181462
#        191657
#        202497
#        213395
#        227295
#        241247
#        250982
#        266187
#        277502
#        290865
#        303965
#        317797
#
# Disc length: 4376 seconds
#
# Revision: 4
# Processed by: cddbd v1.5.2PL0 Copyright (c) Steve Scherf et al.
# Submitted via: ExactAudioCopy v0.95b4
#
DISCID=6a111619
DTITLE=Tammy Wynette - Tears Of Fire: The 25th Anniversary Collection 
DTITLE=[Disc 2]
DYEAR=1992
DGENRE=Country
TTITLE0=He Loves Me All The Way
TTITLE1=We Sure Can Love Each Other
TTITLE2=The Deepening Snow
TTITLE3=Good Lovin' (Makes It Right)
TTITLE4=Bedtime Story
TTITLE5=Till I Get It Right
TTITLE6=My Man (Understands)
TTITLE7=We're Gonna Hold On (With George Jones)
TTITLE8=(We're Not) The Jet Set (With George Jones)
TTITLE9=Another Lonely Song
TTITLE10=I Don't Think About Him No More
TTITLE11=No Charge (With George and Tina)
TTITLE12=Woman To Woman
TTITLE13=This Time I Almost Made It
TTITLE14=Near You (With George Jones)
TTITLE15=I Still Believe In Fairy Tales
TTITLE16='Til I Can Make It On My Own
TTITLE17=Golden Ring (With George Jones)
TTITLE18=Did You Ever (With George Jones)
TTITLE19=You And Me
TTITLE20=Let's Get Together (One Last Time)
TTITLE21=One Of A Kind
TTITLE22=Southern California (With George Jones)
TTITLE23=Dear Daughters
TTITLE24=They Call It Making Love
EXTD=
EXTT0=
EXTT1=
EXTT2=
EXTT3=
EXTT4=
EXTT5=
EXTT6=
EXTT7=With George Jones
EXTT8=With George Jones
EXTT9=
EXTT10=
EXTT11=With George and Tina
EXTT12=
EXTT13=
EXTT14=With George Jones
EXTT15=
EXTT16=
EXTT17=With George Jones
EXTT18=With George Jones
EXTT19=
EXTT20=
EXTT21=
EXTT22=With George Jones
EXTT23=
EXTT24=
PLAYORDER=
